<svg xmlns="http://www.w3.org/2000/svg" xmlns:xlink="http://www.w3.org/1999/xlink" version="1.1" class="marks" width="319" height="295" viewBox="0 0 319 295"><rect width="319" height="295" fill="#efefef"/><g fill="none" stroke-miterlimit="10" transform="translate(38,38)"><g class="mark-group role-frame root" role="graphics-object" aria-roledescription="group mark container"><g transform="translate(0,0)"><path class="background" aria-hidden="true" d="M0,0h0v0h0Z"/><g><g class="mark-group role-scope concat_0_group" role="graphics-object" aria-roledescription="group mark container"><g transform="translate(0,0)"><path class="background" aria-hidden="true" d="M0.5,0.5h275v200h-275Z" stroke="#ddd"/><g><g class="mark-group role-axis" aria-hidden="true"><g transform="translate(0.5,0.5)"><path class="background" aria-hidden="true" d="M0,0h0v0h0Z" pointer-events="none"/><g><g class="mark-rule role-axis-grid" pointer-events="none"><line transform="translate(0,175)" x2="275" y2="0" stroke="#ddd" stroke-width="1" opacity="1"/><line transform="translate(0,125)" x2="275" y2="0" stroke="#ddd" stroke-width="1" opacity="1"/><line transform="translate(0,75)" x2="275" y2="0" stroke="#ddd" stroke-width="1" opacity="1"/><line transform="translate(0,25)" x2="275" y2="0" stroke="#ddd" stroke-width="1" opacity="1"/></g></g><path class="foreground" aria-hidden="true" d="" pointer-events="none" display="none"/></g></g><g class="mark-group role-axis" role="graphics-symbol" aria-roledescription="axis" aria-label="X-axis for a discrete scale with 10 values: 2015, 2016, 2017, 2018, 2019, ending with 2024"><g transform="translate(0.5,200.5)"><path class="background" aria-hidden="true" d="M0,0h0v0h0Z" pointer-events="none"/><g><g class="mark-rule role-axis-tick" pointer-events="none"><line transform="translate(14,0)" x2="0" y2="5" stroke="#888" stroke-width="1" opacity="1"/><line transform="translate(41,0)" x2="0" y2="5" stroke="#888" stroke-width="1" opacity="1"/><line transform="translate(69,0)" x2="0" y2="5" stroke="#888" stroke-width="1" opacity="1"/><line transform="translate(96,0)" x2="0" y2="5" stroke="#888" stroke-width="1" opacity="1"/><line transform="translate(124,0)" x2="0" y2="5" stroke="#888" stroke-width="1" opacity="1"/><line transform="translate(151,0)" x2="0" y2="5" stroke="#888" stroke-width="1" opacity="1"/><line transform="translate(179,0)" x2="0" y2="5" stroke="#888" stroke-width="1" opacity="1"/><line transform="translate(206,0)" x2="0" y2="5" stroke="#888" stroke-width="1" opacity="1"/><line transform="translate(234,0)" x2="0" y2="5" stroke="#888" stroke-width="1" opacity="1"/><line transform="translate(261,0)" x2="0" y2="5" stroke="#888" stroke-width="1" opacity="1"/></g><g class="mark-text role-axis-label" pointer-events="none"><text text-anchor="end" transform="translate(13.75,7) rotate(270) translate(0,3)" font-family="Times New Roman" font-size="10px" fill="#000" opacity="1">2015</text><text text-anchor="end" transform="translate(41.25,7) rotate(270) translate(0,3)" font-family="Times New Roman" font-size="10px" fill="#000" opacity="1">2016</text><text text-anchor="end" transform="translate(68.75,7) rotate(270) translate(0,3)" font-family="Times New Roman" font-size="10px" fill="#000" opacity="1">2017</text><text text-anchor="end" transform="translate(96.25,7) rotate(270) translate(0,3)" font-family="Times New Roman" font-size="10px" fill="#000" opacity="1">2018</text><text text-anchor="end" transform="translate(123.75,7) rotate(270) translate(0,3)" font-family="Times New Roman" font-size="10px" fill="#000" opacity="1">2019</text><text text-anchor="end" transform="translate(151.25,7) rotate(270) translate(0,3)" font-family="Times New Roman" font-size="10px" fill="#000" opacity="1">2020</text><text text-anchor="end" transform="translate(178.75,7) rotate(270) translate(0,3)" font-family="Times New Roman" font-size="10px" fill="#000" opacity="1">2021</text><text text-anchor="end" transform="translate(206.25,7) rotate(270) translate(0,3)" font-family="Times New Roman" font-size="10px" fill="#000" opacity="1">2022</text><text text-anchor="end" transform="translate(233.75,7) rotate(270) translate(0,3)" font-family="Times New Roman" font-size="10px" fill="#000" opacity="1">2023</text><text text-anchor="end" transform="translate(261.25,7) rotate(270) translate(0,3)" font-family="Times New Roman" font-size="10px" fill="#000" opacity="1">2024</text></g><g class="mark-rule role-axis-domain" pointer-events="none"><line transform="translate(0,0)" x2="275" y2="0" stroke="#888" stroke-width="1" opacity="1"/></g></g><path class="foreground" aria-hidden="true" d="" pointer-events="none" display="none"/></g></g><g class="mark-group role-axis" role="graphics-symbol" aria-roledescription="axis" aria-label="Y-axis titled 'Democracy Index' for a linear scale with values from 55 to 63"><g transform="translate(0.5,0.5)"><path class="background" aria-hidden="true" d="M0,0h0v0h0Z" pointer-events="none"/><g><g class="mark-rule role-axis-tick" pointer-events="none"><line transform="translate(0,175)" x2="-5" y2="0" stroke="#888" stroke-width="1" opacity="1"/><line transform="translate(0,125)" x2="-5" y2="0" stroke="#888" stroke-width="1" opacity="1"/><line transform="translate(0,75)" x2="-5" y2="0" stroke="#888" stroke-width="1" opacity="1"/><line transform="translate(0,25)" x2="-5" y2="0" stroke="#888" stroke-width="1" opacity="1"/></g><g class="mark-text role-axis-label" pointer-events="none"><text text-anchor="end" transform="translate(-7,178)" font-family="Times New Roman" font-size="10px" fill="#000" opacity="1">56</text><text text-anchor="end" transform="translate(-7,128)" font-family="Times New Roman" font-size="10px" fill="#000" opacity="1">58</text><text text-anchor="end" transform="translate(-7,78)" font-family="Times New Roman" font-size="10px" fill="#000" opacity="1">60</text><text text-anchor="end" transform="translate(-7,28)" font-family="Times New Roman" font-size="10px" fill="#000" opacity="1">62</text></g><g class="mark-rule role-axis-domain" pointer-events="none"><line transform="translate(0,200)" x2="0" y2="-200" stroke="#888" stroke-width="1" opacity="1"/></g><g class="mark-text role-axis-title" pointer-events="none"><text text-anchor="middle" transform="translate(-21,100) rotate(-90) translate(0,-2)" font-family="sans-serif" font-size="11px" font-weight="bold" fill="#000" opacity="1">Democracy Index</text></g></g><path class="foreground" aria-hidden="true" d="" pointer-events="none" display="none"/></g></g><g class="mark-line role-mark concat_0_layer_0_marks" role="graphics-object" aria-roledescription="line mark container"><path aria-label="Edition: 2015; Democracy Index: 60.8469387755" role="graphics-symbol" aria-roledescription="line mark" d="M13.75,53.827L41.25,61.097L68.75,78.59L96.25,91.41L123.75,99.487L151.25,107.308L178.75,119.359L206.25,133.846L233.75,138.846L261.25,147.821" stroke="#A53F2B" stroke-width="2"/></g><g class="mark-symbol role-mark concat_0_layer_1_marks" role="graphics-object" aria-roledescription="symbol mark container"><path aria-label="Edition: 2015; Democracy Index: 60.8469387755" role="graphics-symbol" aria-roledescription="point" transform="translate(13.75,53.826530612244916)" d="M4.743,0A4.743,4.743,0,1,1,-4.743,0A4.743,4.743,0,1,1,4.743,0" fill="#A53F2B" stroke-width="2" opacity="0.7"/><path aria-label="Edition: 2016; Democracy Index: 60.556122449" role="graphics-symbol" aria-roledescription="point" transform="translate(41.25,61.09693877551017)" d="M4.743,0A4.743,4.743,0,1,1,-4.743,0A4.743,4.743,0,1,1,4.743,0" fill="#A53F2B" stroke-width="2" opacity="0.7"/><path aria-label="Edition: 2017; Democracy Index: 59.8564102564" role="graphics-symbol" aria-roledescription="point" transform="translate(68.75,78.58974358974358)" d="M4.743,0A4.743,4.743,0,1,1,-4.743,0A4.743,4.743,0,1,1,4.743,0" fill="#A53F2B" stroke-width="2" opacity="0.7"/><path aria-label="Edition: 2018; Democracy Index: 59.3435897436" role="graphics-symbol" aria-roledescription="point" transform="translate(96.25,91.41025641025635)" d="M4.743,0A4.743,4.743,0,1,1,-4.743,0A4.743,4.743,0,1,1,4.743,0" fill="#A53F2B" stroke-width="2" opacity="0.7"/><path aria-label="Edition: 2019; Democracy Index: 59.0205128205" role="graphics-symbol" aria-roledescription="point" transform="translate(123.75,99.48717948717949)" d="M4.743,0A4.743,4.743,0,1,1,-4.743,0A4.743,4.743,0,1,1,4.743,0" fill="#A53F2B" stroke-width="2" opacity="0.7"/><path aria-label="Edition: 2020; Democracy Index: 58.7076923077" role="graphics-symbol" aria-roledescription="point" transform="translate(151.25,107.30769230769238)" d="M4.743,0A4.743,4.743,0,1,1,-4.743,0A4.743,4.743,0,1,1,4.743,0" fill="#A53F2B" stroke-width="2" opacity="0.7"/><path aria-label="Edition: 2021; Democracy Index: 58.2256410256" role="graphics-symbol" aria-roledescription="point" transform="translate(178.75,119.35897435897438)" d="M4.743,0A4.743,4.743,0,1,1,-4.743,0A4.743,4.743,0,1,1,4.743,0" fill="#A53F2B" stroke-width="2" opacity="0.7"/><path aria-label="Edition: 2022; Democracy Index: 57.6461538462" role="graphics-symbol" aria-roledescription="point" transform="translate(206.25,133.8461538461539)" d="M4.743,0A4.743,4.743,0,1,1,-4.743,0A4.743,4.743,0,1,1,4.743,0" fill="#A53F2B" stroke-width="2" opacity="0.7"/><path aria-label="Edition: 2023; Democracy Index: 57.4461538462" role="graphics-symbol" aria-roledescription="point" transform="translate(233.75,138.8461538461538)" d="M4.743,0A4.743,4.743,0,1,1,-4.743,0A4.743,4.743,0,1,1,4.743,0" fill="#A53F2B" stroke-width="2" opacity="0.7"/><path aria-label="Edition: 2024; Democracy Index: 57.0871794872" role="graphics-symbol" aria-roledescription="point" transform="translate(261.25,147.82051282051273)" d="M4.743,0A4.743,4.743,0,1,1,-4.743,0A4.743,4.743,0,1,1,4.743,0" fill="#A53F2B" stroke-width="2" opacity="0.7"/></g><g class="mark-group role-title"><g transform="translate(137.5,-32)"><path class="background" aria-hidden="true" d="M0,0h0v0h0Z" pointer-events="none"/><g><g class="mark-text role-title-text" role="graphics-symbol" aria-roledescription="title" aria-label="Title text 'Figure 5: Average Democracy Score in the World (2015-2024)'" pointer-events="none"><text text-anchor="middle" transform="translate(0,10)" font-family="Times New Roman" font-size="13px" font-weight="bold" fill="#000" opacity="1"><tspan>Figure 5: Average Democracy Score</tspan><tspan x="0" dy="15">in the World (2015-2024)</tspan></text></g></g><path class="foreground" aria-hidden="true" d="" pointer-events="none" display="none"/></g></g></g><path class="foreground" aria-hidden="true" d="" display="none"/></g></g><g class="mark-group role-scope concat_1_group" role="graphics-object" aria-roledescription="group mark container"><g transform="translate(0,232)"><path class="background" aria-hidden="true" d="M0,0h10v20h-10Z"/><g><g class="mark-text role-mark concat_1_marks" role="graphics-object" aria-roledescription="text mark container"><text aria-label="text: Source: Freedom House (2025)" role="graphics-symbol" aria-roledescription="text mark" text-anchor="start" transform="translate(5,13)" font-family="sans-serif " font-size="10px" font-weight="normal" fill="gray">Source: Freedom House (2025)</text></g></g><path class="foreground" aria-hidden="true" d="" display="none"/></g></g></g><path class="foreground" aria-hidden="true" d="" display="none"/></g></g></g></svg>